name rise49.5252peak65.1548fall88.8305.mot
datacolumns 19
datarows 26
range 16.65659600000000 16.69826500000000
endheader
time	ground_force1_vx	ground_force1_vy	ground_force1_vz	ground_force1_px	ground_force1_py	ground_force1_pz	ground_force2_vx	ground_force2_vy	ground_force2_vz	ground_force2_px	ground_force2_py	ground_force2_pz	ground_torque1_x	ground_torque1_y	ground_torque1_z	ground_torque2_x	ground_torque2_y	ground_torque2_z	
16.65659600000000	-7.41655000000000	46.04114100000000	-9.88700000000000	0.39064100000000	0.00000000000000	0.10116700000000	-43.17504300000000	789.70231600000000	-54.03164000000000	0.22739100000000	0.00000000000000	-0.07645100000000	0.00000000000000	-8.02331700000000	0.00000000000000	0.00000000000000	-29.36893000000000	0.00000000000000	
16.65826900000000	-7.95320800000000	52.68784100000000	-10.86224000000000	0.39189600000000	0.00000000000000	0.10193500000000	-43.80769900000000	786.97276899999997	-53.72131100000000	0.22617000000000	0.00000000000000	-0.07638700000000	0.00000000000000	-8.85821800000000	0.00000000000000	0.00000000000000	-29.21192900000000	0.00000000000000	
16.65993500000000	-8.34393100000000	59.28321500000000	-11.70911600000000	0.39330400000000	0.00000000000000	0.10263600000000	-44.45096200000000	784.14165400000002	-53.39358400000000	0.22494800000000	0.00000000000000	-0.07632000000000	0.00000000000000	-9.60296600000000	0.00000000000000	0.00000000000000	-29.05176500000000	0.00000000000000	
16.66160900000000	-8.57693800000000	65.76130800000000	-12.41210900000000	0.39483700000000	0.00000000000000	0.10327900000000	-45.10458600000000	781.20805299999995	-53.04839200000000	0.22372700000000	0.00000000000000	-0.07624900000000	0.00000000000000	-10.24510600000000	0.00000000000000	0.00000000000000	-28.88850000000000	0.00000000000000	
16.66326800000000	-8.64772100000000	72.08103800000001	-12.96375300000000	0.39647100000000	0.00000000000000	0.10387400000000	-45.76825300000000	778.17096300000003	-52.68567600000000	0.22250900000000	0.00000000000000	-0.07617400000000	0.00000000000000	-10.77830000000000	0.00000000000000	0.00000000000000	-28.72218800000000	0.00000000000000	
16.66493100000000	-8.55839900000000	78.22573300000001	-13.36405300000000	0.39818500000000	0.00000000000000	0.10442700000000	-46.44156700000000	775.02929500000005	-52.30538800000000	0.22129300000000	0.00000000000000	-0.07609500000000	0.00000000000000	-11.20196200000000	0.00000000000000	0.00000000000000	-28.55286900000000	0.00000000000000	
16.66659500000000	-8.31663900000000	84.20072600000000	-13.61939100000000	0.39996300000000	0.00000000000000	0.10494300000000	-47.12405800000000	771.78187600000001	-51.90748900000000	0.22008200000000	0.00000000000000	-0.07601300000000	0.00000000000000	-11.52047100000000	0.00000000000000	0.00000000000000	-28.38057000000000	0.00000000000000	
16.66826300000000	-7.93431500000000	90.02956800000000	-13.74109900000000	0.40179300000000	0.00000000000000	0.10542700000000	-47.81518000000000	768.42745000000002	-51.49195600000000	0.21887500000000	0.00000000000000	-0.07592600000000	0.00000000000000	-11.74211600000000	0.00000000000000	0.00000000000000	-28.20530900000000	0.00000000000000	
16.66993200000000	-7.42605400000000	95.74938899999999	-13.74387600000000	0.40366300000000	0.00000000000000	0.10588200000000	-48.51430400000000	764.96468100000004	-51.05877400000000	0.21767400000000	0.00000000000000	-0.07583500000000	0.00000000000000	-11.87790000000000	0.00000000000000	0.00000000000000	-28.02708900000000	0.00000000000000	
16.67159900000000	-6.80781900000000	101.40596200000000	-13.64419800000000	0.40556300000000	0.00000000000000	0.10631300000000	-49.22072300000000	761.39215300000001	-50.60794800000000	0.21648000000000	0.00000000000000	-0.07574000000000	0.00000000000000	-11.94031900000000	0.00000000000000	0.00000000000000	-27.84590300000000	0.00000000000000	
16.67326400000000	-6.09562900000000	107.04890300000000	-13.45887300000000	0.40748700000000	0.00000000000000	0.10672100000000	-49.93364900000000	757.70838000000003	-50.13949600000000	0.21529400000000	0.00000000000000	-0.07564100000000	0.00000000000000	-11.94222800000000	0.00000000000000	0.00000000000000	-27.66173000000000	0.00000000000000	
16.67493000000000	-5.30449800000000	112.72737700000000	-13.20380700000000	0.40942600000000	0.00000000000000	0.10711000000000	-50.65221200000000	753.91180199999997	-49.65345500000000	0.21411700000000	0.00000000000000	-0.07553800000000	0.00000000000000	-11.89586900000000	0.00000000000000	0.00000000000000	-27.47453800000000	0.00000000000000	
16.67659500000000	-4.44763700000000	118.48656400000000	-12.89305400000000	0.41137700000000	0.00000000000000	0.10748100000000	-51.37546100000000	750.00079700000003	-49.14988100000000	0.21295000000000	0.00000000000000	-0.07543000000000	0.00000000000000	-11.81209800000000	0.00000000000000	0.00000000000000	-27.28428400000000	0.00000000000000	
16.67826600000000	-3.53593700000000	124.36500900000000	-12.53818100000000	0.41333300000000	0.00000000000000	0.10783600000000	-52.10236600000000	745.97368300000005	-48.62884900000000	0.21179300000000	0.00000000000000	-0.07531800000000	0.00000000000000	-11.69985800000000	0.00000000000000	0.00000000000000	-27.09091500000000	0.00000000000000	
16.67993100000000	-2.57772500000000	130.39292100000000	-12.14792000000000	0.41529100000000	0.00000000000000	0.10817700000000	-52.83181400000000	741.82872499999996	-48.09045800000000	0.21064900000000	0.00000000000000	-0.07520100000000	0.00000000000000	-11.56587900000000	0.00000000000000	0.00000000000000	-26.89436600000000	0.00000000000000	
16.68159600000000	-1.57875400000000	136.59136400000000	-11.72811100000000	0.41724700000000	0.00000000000000	0.10850400000000	-53.56261400000000	737.56414099999995	-47.53482700000000	0.20951800000000	0.00000000000000	-0.07507900000000	0.00000000000000	-11.41459600000000	0.00000000000000	0.00000000000000	-26.69456200000000	0.00000000000000	
16.68326500000000	-0.54239800000000	142.97224700000001	-11.28185700000000	0.41919700000000	0.00000000000000	0.10882000000000	-54.29349700000000	733.17811300000005	-46.96210300000000	0.20840000000000	0.00000000000000	-0.07495300000000	0.00000000000000	-11.24825300000000	0.00000000000000	0.00000000000000	-26.49141900000000	0.00000000000000	
16.68493300000000	0.53001400000000	149.53896599999999	-10.80986800000000	0.42113900000000	0.00000000000000	0.10912400000000	-55.02311900000000	728.66879200000005	-46.37245800000000	0.20729800000000	0.00000000000000	-0.07482200000000	0.00000000000000	-11.06715200000000	0.00000000000000	0.00000000000000	-26.28484400000000	0.00000000000000	
16.68659600000000	1.63876100000000	156.28752800000001	-10.31091800000000	0.42307100000000	0.00000000000000	0.10941800000000	-55.75006100000000	724.03430900000001	-45.76608800000000	0.20621200000000	0.00000000000000	-0.07468700000000	0.00000000000000	-10.86999700000000	0.00000000000000	0.00000000000000	-26.07473600000000	0.00000000000000	
16.68826700000000	2.78525200000000	163.20798900000000	-9.78235900000000	0.42498900000000	0.00000000000000	0.10970200000000	-56.47283300000000	719.27278600000000	-45.14322200000000	0.20514300000000	0.00000000000000	-0.07454600000000	0.00000000000000	-10.65430500000000	0.00000000000000	0.00000000000000	-25.86098600000000	0.00000000000000	
16.68993500000000	3.97154900000000	170.28603000000001	-9.22066200000000	0.42689200000000	0.00000000000000	0.10997800000000	-57.18987700000000	714.38234799999998	-44.50411400000000	0.20409300000000	0.00000000000000	-0.07440100000000	0.00000000000000	-10.41682400000000	0.00000000000000	0.00000000000000	-25.64347800000000	0.00000000000000	
16.69159500000000	5.19991900000000	177.50454300000001	-8.62191200000000	0.42877800000000	0.00000000000000	0.11024500000000	-57.89956800000000	709.36113100000000	-43.84905000000000	0.20306100000000	0.00000000000000	-0.07425000000000	0.00000000000000	-10.15394000000000	0.00000000000000	0.00000000000000	-25.42209300000000	0.00000000000000	
16.69326400000000	6.47245700000000	184.84509399999999	-7.98225300000000	0.43064500000000	0.00000000000000	0.11050400000000	-58.60022200000000	704.20730300000002	-43.17834700000000	0.20205000000000	0.00000000000000	-0.07409500000000	0.00000000000000	-9.86203600000000	0.00000000000000	0.00000000000000	-25.19670100000000	0.00000000000000	
16.69493400000000	7.79077300000000	192.28919400000001	-7.29824800000000	0.43249100000000	0.00000000000000	0.11075500000000	-59.29009700000000	698.91907100000003	-42.49235400000000	0.20106000000000	0.00000000000000	-0.07393400000000	0.00000000000000	-9.53779300000000	0.00000000000000	0.00000000000000	-24.96717400000000	0.00000000000000	
16.69659900000000	9.15578300000000	199.81930800000001	-6.56714400000000	0.43431400000000	0.00000000000000	0.11099900000000	-59.96739700000000	693.49469999999997	-41.79145100000000	0.20009100000000	0.00000000000000	-0.07376800000000	0.00000000000000	-9.17841300000000	0.00000000000000	0.00000000000000	-24.73337500000000	0.00000000000000	
16.69826500000000	10.56756900000000	207.41958900000000	-5.78705000000000	0.43611300000000	0.00000000000000	0.11123700000000	-60.63027700000000	687.93252700000005	-41.07604900000000	0.19914600000000	0.00000000000000	-0.07359800000000	0.00000000000000	-8.78177700000000	0.00000000000000	0.00000000000000	-24.49516800000000	0.00000000000000	
